<?xml version="1.0" encoding="UTF-8" standalone="no"?>
<!-- Created with Inkscape (http://www.inkscape.org/) -->

<svg
   width="210mm"
   height="297mm"
   viewBox="0 0 210 297"
   version="1.1"
   id="svg5"
   inkscape:version="1.1.1 (3bf5ae0d25, 2021-09-20)"
   sodipodi:docname="dawscotas logo.svg"
   inkscape:export-filename="C:\Users\migue\OneDrive\Escritorio\2DAW\DIW(Diseño de Interfaces Web)\logo\nike.png"
   inkscape:export-xdpi="96"
   inkscape:export-ydpi="96"
   xmlns:inkscape="http://www.inkscape.org/namespaces/inkscape"
   xmlns:sodipodi="http://sodipodi.sourceforge.net/DTD/sodipodi-0.dtd"
   xmlns="http://www.w3.org/2000/svg"
   xmlns:svg="http://www.w3.org/2000/svg">
  <sodipodi:namedview
     id="namedview7"
     pagecolor="#505050"
     bordercolor="#eeeeee"
     borderopacity="1"
     inkscape:pageshadow="0"
     inkscape:pageopacity="0"
     inkscape:pagecheckerboard="0"
     inkscape:document-units="mm"
     showgrid="false"
     inkscape:zoom="0.72337264"
     inkscape:cx="85.709628"
     inkscape:cy="459.65244"
     inkscape:window-width="1920"
     inkscape:window-height="1001"
     inkscape:window-x="-9"
     inkscape:window-y="-9"
     inkscape:window-maximized="1"
     inkscape:current-layer="g9138"
     inkscape:snap-global="true" />
  <defs
     id="defs2">
    <rect
       x="256.10863"
       y="601.17102"
       width="329.42217"
       height="173.01995"
       id="rect5623" />
    <rect
       x="-1846.9042"
       y="-273.71784"
       width="627.61566"
       height="464.49089"
       id="rect18476" />
    <rect
       x="-1780.5484"
       y="-212.89166"
       width="74.650319"
       height="60.826189"
       id="rect3322" />
    <rect
       x="-1744.6057"
       y="-270.95302"
       width="69.120668"
       height="99.533761"
       id="rect22256" />
    <rect
       x="-1846.9042"
       y="-262.65854"
       width="674.61772"
       height="409.19435"
       id="rect17034" />
    <rect
       x="-414.46588"
       y="206.25542"
       width="44.965637"
       height="63.538401"
       id="rect10079" />
    <rect
       x="-464.31908"
       y="394.9156"
       width="1.9550277"
       height="66.470942"
       id="rect4460" />
    <rect
       x="-583.57577"
       y="298.14173"
       width="160.31227"
       height="80.156136"
       id="rect1440" />
  </defs>
  <g
     inkscape:label="Capa 1"
     inkscape:groupmode="layer"
     id="layer1">
    <text
       xml:space="preserve"
       transform="matrix(2.6641551,0,0,4.052649,4431.0296,1013.2632)"
       id="text1438"
       style="font-style:normal;font-weight:normal;font-size:40px;line-height:1.25;font-family:sans-serif;white-space:pre;shape-inside:url(#rect1440);fill:#000000;fill-opacity:1;stroke:none" />
    <g
       transform="matrix(0.01425992,0,0,-0.01500487,193.24961,186.13974)"
       fill="#000000"
       stroke="none"
       id="g9138">
      <path
         d="M -6050.1504,9568.7438 C -8022.0383,9472.5082 -9833.0012,8396.39 -10947.298,6658.709 -12151.629,4775.6378 -12348.547,2341.2432 -11468.179,255.68616 -10339.754,-2418.158 -7742.9561,-3974.1951 -5005.7291,-3613.3971 -2782.6483,-3323.4373 -866.2272,-1779.0069 -3.8417918,415.07835 1298.2208,3730.3553 -116.96022,7512.5621 -3215.9628,8991.9408 c -857.6985,411.202 -1896.1468,619.7205 -2834.1876,576.803 z M -4789.8674,8325.275 C -2534.81,7852.0602 -849.69743,5883.9114 -621.24117,3452.5974 -581.86408,3049.0351 -616.41278,2325.6892 -691.60263,1928.273 -925.22515,720.91643 -1467.3449,-293.77025 -2315.1536,-1108.1681 c -829.7583,-794.6459 -1857.151,-1275.6599 -2979.6458,-1394.1522 -380.7886,-41.7323 -1063.3148,-5.1174 -1438.304,74.5694 -1538.3417,333.7559 -2778.0708,1291.222 -3554.1086,2746.99271 -470.806,887.72629 -682.921,1870.35499 -632.085,2934.70699 39.854,834.4314 210.877,1498.6563 573.422,2232.8968 297.502,600.4597 634.778,1061.5158 1118.6803,1522.476 942.5651,905.1446 2030.0338,1364.8057 3354.942,1423.2294 208.1826,9.5517 818.6617,-51.6882 1082.3853,-107.276 z"
         id="path9126"
         style="stroke-width:2.51264" />
      <g
         id="g14120"
         transform="matrix(0.77555978,-0.64112876,0.70927312,0.85799256,-4827.6722,-3942.1335)">
        <path
           d="m -9007.8025,5167.8926 c -226.0276,-75.1028 -397.7638,-326.7247 -412.9283,-603.06 -10.4563,-204.0695 56.8836,-361.3778 189.4531,-442.4946 47.7651,-29.2041 61.6516,-32.878 142.8758,-36.9397 85.2352,-4.2623 96.418,-1.842 169.391,29.2698 143.8898,61.3331 274.6535,219.6599 336.5431,407.2531 27.2259,80.0783 38.4695,260.2724 22.0181,331.61 -28.752,125.5836 -100.6355,233.4608 -188.3466,287.5052 -71.2224,42.2951 -177.2112,53.5542 -259.0062,26.8562 z"
           id="path9128"
           style="stroke-width:0.997956" />
        <path
           d="m -7736.2796,5045.7119 c -65.8906,-10.6094 -181.0938,-61.4591 -249.9667,-110.6528 -100.1741,-71.4646 -199.0274,-195.6331 -253.6066,-319.036 -26.0584,-57.2938 -30.2342,-79.9278 -36.3253,-198.8033 -7.7537,-131.7034 -6.9032,-134.7255 21.8861,-200.721 46.7634,-107.6141 135.3634,-183.5527 237.8363,-204.5676 91.4933,-19.4728 244.3448,20.5558 347.4765,90.8792 120.8386,82.3493 234.4029,238.5566 281.3277,389.1578 14.4696,46.9484 19.8129,92.3669 21.0175,174.7396 1.2679,103.2259 -1.1313,115.2639 -31.6215,187.3035 -36.1008,80.2654 -85.5037,136.3669 -150.3159,166.4234 -45.1629,21.1286 -134.0031,33.5165 -187.7081,25.2772 z"
           id="path9130"
           style="stroke-width:0.997956" />
        <path
           d="m -7041.046,4232.303 c -232.324,-41.0202 -438.9934,-189.5922 -536.5382,-386.3273 -19.0774,-38.7727 -28.1779,-79.0375 -35.7421,-148.1809 -8.5286,-87.9654 -7.1322,-99.9532 15.0945,-156.682 29.3352,-74.9613 86.5064,-136.4171 164.8498,-177.0819 44.0586,-23.0597 74.8398,-30.558 145.884,-37.0901 142.0885,-13.0643 255.0707,14.0604 395.9647,95.4067 329.4887,191.0955 435.8148,559.2094 212.6522,736.2278 -78.2294,62.5088 -239.4595,94.4072 -362.1649,73.7277 z"
           id="path9132"
           style="stroke-width:0.997956" />
        <path
           d="m -8976.1405,3921.871 c -242.9991,-33.5343 -449.9866,-129.4525 -629.1369,-290.3255 -104.3498,-94.0986 -155.2868,-166.0389 -164.9073,-236.0727 -14.8115,-112.4804 36.8508,-163.729 334.7258,-334.5518 327.1458,-188.1772 462.5082,-293.2697 586.7521,-458.3893 74.3965,-98.0712 106.0034,-148.3169 272.5429,-429.7658 99.0732,-165.8474 160.5477,-241.4227 220.3968,-270.2378 41.2533,-18.9468 104.3769,-23.0965 142.2914,-9.1018 128.1377,48.2165 304.6474,236.0371 397.7244,424.0571 69.6839,143.5041 94.8151,241.5641 104.853,417.8459 9.9871,175.2911 2.7128,249.1492 -37.6156,384.2503 -89.0602,302.4037 -276.4919,529.28 -559.3378,679.4879 -144.8565,76.7654 -258.855,108.2883 -442.1585,121.4273 -103.1835,7.1461 -179.5461,7.9852 -226.1303,1.3762 z"
           id="path9134"
           style="stroke-width:0.997956" />
        <path
           d="m -7060.5894,3046.4457 c -198.0269,-38.7627 -360.4989,-148.825 -454.0079,-306.0352 -34.1313,-57.8832 -37.7487,-69.6203 -41.9617,-151.8425 -3.9592,-77.2691 -0.9125,-96.2916 19.9685,-140.042 67.949,-145.4207 244.285,-235.6783 451.515,-233.1299 261.5824,3.8032 476.5537,118.1924 592.1991,315.0155 28.6099,48.2276 32.3796,62.9366 36.9479,152.0932 5.685,110.9505 -6.3741,150.287 -69.8542,225.9626 -37.8265,46.5841 -150.15,110.7978 -226.551,130.509 -77.4037,19.7613 -226.0163,23.2202 -308.2557,7.4693 z"
           id="path9136"
           style="stroke-width:0.997956" />
      </g>
      <text
         xml:space="preserve"
         transform="matrix(641.30938,0,0,-1356.5896,1180104.6,-351187.29)"
         id="text17032"
         style="font-style:normal;font-weight:normal;font-size:40px;line-height:1.25;font-family:sans-serif;white-space:pre;shape-inside:url(#rect17034);fill:#000000;fill-opacity:1;stroke:none" />
      <text
         xml:space="preserve"
         transform="matrix(75.519353,0,0,-114.87823,132606.89,-25472.835)"
         id="text22254"
         style="font-style:normal;font-weight:normal;font-size:40px;line-height:1.25;font-family:sans-serif;white-space:pre;shape-inside:url(#rect22256);fill:#000000;fill-opacity:1;stroke:none" />
      <text
         xml:space="preserve"
         transform="matrix(671.08781,0,0,-1628.8947,1189101.2,-334868.89)"
         id="text3320"
         style="font-style:normal;font-weight:normal;font-size:40px;line-height:1.25;font-family:sans-serif;white-space:pre;shape-inside:url(#rect3322);fill:#000000;fill-opacity:1;stroke:none"><tspan
           x="-1780.5488"
           y="-116.67578"
           id="tspan9783"><tspan
             dx="0 31.439972"
             style="font-family:Pacifico;-inkscape-font-specification:Pacifico"
             id="tspan9781">AW</tspan></tspan></text>
      <text
         xml:space="preserve"
         transform="matrix(75.519353,0,0,-114.87823,132573.05,-24759.133)"
         id="text18474"
         style="font-style:normal;font-weight:normal;font-size:40px;line-height:1.25;font-family:sans-serif;white-space:pre;shape-inside:url(#rect18476);fill:#000000;fill-opacity:1;stroke:none"><tspan
           x="-1846.9043"
           y="-238.32812"
           id="tspan9787"><tspan
             style="font-family:'Segoe Print';-inkscape-font-specification:'Segoe Print'"
             id="tspan9785">AW</tspan></tspan></text>
      <text
         xml:space="preserve"
         transform="matrix(53.509408,0,0,-75.23218,-22857.177,47497.822)"
         id="text5621"
         style="font-style:normal;font-weight:normal;font-size:40px;line-height:1.25;font-family:sans-serif;white-space:pre;shape-inside:url(#rect5623);fill:#000000;fill-opacity:1;stroke:none"><tspan
           x="256.10938"
           y="636.5625"
           id="tspan9791"><tspan
             style="font-family:'Segoe Print';-inkscape-font-specification:'Segoe Print'"
             id="tspan9789">LOGIC</tspan></tspan></text>
    </g>
    <text
       xml:space="preserve"
       transform="matrix(2.6641551,0,0,4.052649,4431.0296,1013.2632)"
       id="text10077"
       style="font-style:normal;font-weight:normal;font-size:40px;line-height:1.25;font-family:sans-serif;white-space:pre;shape-inside:url(#rect10079);fill:#000000;fill-opacity:1;stroke:none" />
  </g>
</svg>
